<mxfile host="app.diagrams.net" modified="2021-11-29T10:28:43.846Z" agent="5.0 (Windows NT 10.0; Win64; x64) AppleWebKit/537.36 (KHTML, like Gecko) Chrome/96.0.4664.45 Safari/537.36" etag="v9r9gAATxtgVmPqYq94C" version="15.8.2" type="github">
  <diagram name="查询下一节点审批人" id="9361dd3d-8414-5efd-6122-117bd74ce7a7">
    <mxGraphModel dx="2234" dy="1466" grid="1" gridSize="10" guides="1" tooltips="1" connect="1" arrows="1" fold="1" page="0" pageScale="1.5" pageWidth="826" pageHeight="1169" background="none" math="0" shadow="0">
      <root>
        <mxCell id="0" />
        <mxCell id="1" parent="0" />
        <mxCell id="_1kvY9yX2X5lTFdotekv-129" value="&lt;font color=&quot;#ffffff&quot;&gt;instanceId不为空&lt;/font&gt;" style="shape=umlFrame;whiteSpace=wrap;html=1;labelBackgroundColor=none;fontSize=10;fontColor=#000000;fillColor=#666666;" vertex="1" parent="1">
          <mxGeometry x="600" y="1120" width="550" height="200" as="geometry" />
        </mxCell>
        <mxCell id="_1kvY9yX2X5lTFdotekv-142" value="" style="line;strokeWidth=4;direction=south;html=1;perimeter=backbonePerimeter;points=[];outlineConnect=0;labelBackgroundColor=none;fontSize=8;fontColor=#000000;fillColor=#666666;" vertex="1" parent="1">
          <mxGeometry x="1240" y="340" width="10" height="800" as="geometry" />
        </mxCell>
        <mxCell id="_1kvY9yX2X5lTFdotekv-117" value="&lt;span style=&quot;font-size: 10px;&quot;&gt;instanceId为空&lt;/span&gt;" style="shape=umlFrame;whiteSpace=wrap;html=1;labelBackgroundColor=none;fontSize=10;fontColor=#FFFFFF;fillColor=#666666;align=center;width=60;height=40;" vertex="1" parent="1">
          <mxGeometry x="600" y="560" width="550" height="550" as="geometry" />
        </mxCell>
        <mxCell id="_1kvY9yX2X5lTFdotekv-89" value="&lt;pre style=&quot;font-family: &amp;#34;consolas&amp;#34; , monospace ; font-size: 11.3pt&quot;&gt;&lt;font color=&quot;#ffffff&quot;&gt;SysAuditProcessService&lt;/font&gt;&lt;/pre&gt;" style="shape=umlLifeline;perimeter=lifelinePerimeter;whiteSpace=wrap;html=1;container=1;collapsible=0;recursiveResize=0;outlineConnect=0;fillColor=#666666;" vertex="1" parent="1">
          <mxGeometry x="350" y="440" width="200" height="820" as="geometry" />
        </mxCell>
        <mxCell id="_1kvY9yX2X5lTFdotekv-102" value="" style="html=1;points=[];perimeter=orthogonalPerimeter;fontSize=13;fontColor=#000000;fillColor=#FFFFFF;" vertex="1" parent="_1kvY9yX2X5lTFdotekv-89">
          <mxGeometry x="95" y="80" width="10" height="600" as="geometry" />
        </mxCell>
        <mxCell id="_1kvY9yX2X5lTFdotekv-127" value="&lt;pre style=&quot;font-family: &amp;#34;consolas&amp;#34; , monospace ; font-size: 8px&quot;&gt;&lt;font color=&quot;#000000&quot; style=&quot;font-size: 8px&quot;&gt;queryNextAuditUsersV6&lt;/font&gt;&lt;/pre&gt;&lt;pre style=&quot;font-family: &amp;#34;consolas&amp;#34; , monospace ; font-size: 8px&quot;&gt;&lt;font style=&quot;font-size: 8px&quot;&gt;&lt;font style=&quot;font-size: 8px&quot;&gt;&lt;font color=&quot;#000000&quot; style=&quot;font-size: 8px&quot;&gt;(diagramId,instanceId,&lt;/font&gt;&lt;font color=&quot;#000000&quot; style=&quot;font-size: 8px&quot;&gt;activityKey&lt;/font&gt;&lt;font color=&quot;#000000&quot; style=&quot;font-size: 8px&quot;&gt;)&lt;/font&gt;&lt;/font&gt;)&lt;/font&gt;&lt;/pre&gt;" style="html=1;verticalAlign=bottom;endArrow=block;rounded=0;labelBackgroundColor=none;fontSize=16;fontColor=#FFFFFF;" edge="1" parent="_1kvY9yX2X5lTFdotekv-89" target="_1kvY9yX2X5lTFdotekv-124">
          <mxGeometry x="-0.0079" y="-10" width="80" relative="1" as="geometry">
            <mxPoint x="105" y="110" as="sourcePoint" />
            <mxPoint x="185" y="110" as="targetPoint" />
            <mxPoint as="offset" />
          </mxGeometry>
        </mxCell>
        <mxCell id="_1kvY9yX2X5lTFdotekv-91" value="&lt;img src=&quot;data:image/png;base64,iVBORw0KGgoAAAANSUhEUgAAABAAAAAQCAYAAAAf8/9hAAAAAXNSR0IArs4c6QAAAf5JREFUOE+lkz9MFFEQxr95u5czamNjp7GSBEmUqAWJGgHPBiOFQMKfW1CvMKHbXGdhYyUGQqMGVjgxaPTci5oQvdxFL4I0omHXYKGFDYbQ2Xhssuwbcnuct3uAFL7q5c3ML998M4/wn4e2qy/29XeTRAsIrQA8kHgnJGejT1KZ2vwQoNh9rYmEvAmgbQdhn1gIfe/jiblKPARwegcWGDi5S1drUqJn39PUy1JeFbD48MafOx9cQWTsZgsBi2sRNB9IpX6XAV8nLkFKA67XUByef0NEp4hJJ0I2Oj357V/AMsA2JsEYAHDXGZoteJJOz1/tLQC4VQrHYrFm99GVISIk/8KY76n9mcEywDJ+Ajji3yXOoDHxMZ/PLzCz7wcRpVt/3b/tEayAeUuKZjZsBQCvcTzRnsvl3gM4v1lQuLA6NuhJuVQBMPA9opl1FcAUgHhVHq5nVw8dVhSlA4DDzMmWlQeNDAwHACMRzdQrgASA8ZBZhC6o0TnUx1f4eef+dUd+JuBoNYe6VO1FujpGy8gD/ubVHG5y7bedxNADgVlVM8+F98AauwyIZwD2BBJfOXY2qbL8UaOuQ42bZhjgT2P8LEClVur8AlUcW/8yMwLGxU3AMkB6SXpgGjWKramDgNsD8AnXmjEERJoJNkvYqsKj1JdZDlZs+xu3+rDzywbWx7cRFkfdagAAAABJRU5ErkJggg==&quot; width=&quot;16&quot; height=&quot;16&quot;&gt;&lt;div style=&quot;text-align: justify&quot;&gt;&lt;span&gt;&lt;font color=&quot;#ffffff&quot; style=&quot;font-size: 16px&quot;&gt;WEB&lt;/font&gt;&lt;/span&gt;&lt;/div&gt;" style="shape=umlLifeline;perimeter=lifelinePerimeter;whiteSpace=wrap;html=1;container=1;collapsible=0;recursiveResize=0;outlineConnect=0;fillColor=#666666;" vertex="1" parent="1">
          <mxGeometry x="190" y="400" width="100" height="880" as="geometry" />
        </mxCell>
        <mxCell id="_1kvY9yX2X5lTFdotekv-99" value="" style="html=1;points=[];perimeter=orthogonalPerimeter;fontSize=13;fillColor=#FFFFFF;" vertex="1" parent="_1kvY9yX2X5lTFdotekv-91">
          <mxGeometry x="45" y="100" width="10" height="600" as="geometry" />
        </mxCell>
        <mxCell id="_1kvY9yX2X5lTFdotekv-122" value="dispatch" style="html=1;verticalAlign=bottom;endArrow=block;rounded=0;labelBackgroundColor=none;fontSize=16;fontColor=#FFFFFF;" edge="1" parent="_1kvY9yX2X5lTFdotekv-91">
          <mxGeometry width="80" relative="1" as="geometry">
            <mxPoint x="65" y="130" as="sourcePoint" />
            <mxPoint x="255" y="130" as="targetPoint" />
          </mxGeometry>
        </mxCell>
        <mxCell id="_1kvY9yX2X5lTFdotekv-128" value="&lt;font style=&quot;font-size: 12px&quot;&gt;&lt;font color=&quot;#000000&quot; style=&quot;font-size: 12px&quot;&gt;查询可指定人员的审批节点&lt;br&gt;&lt;/font&gt;&lt;/font&gt;&lt;font&gt;&lt;font color=&quot;#080808&quot; face=&quot;consolas, monospace&quot;&gt;&lt;span style=&quot;font-size: 11px&quot;&gt;&lt;i&gt;queryNextAuditUsersV6.htm&lt;/i&gt;&lt;/span&gt;&lt;/font&gt;&lt;br&gt;&lt;/font&gt;" style="edgeLabel;html=1;align=center;verticalAlign=middle;resizable=0;points=[];fontSize=16;fontColor=#FFFFFF;labelBackgroundColor=none;" vertex="1" connectable="0" parent="_1kvY9yX2X5lTFdotekv-122">
          <mxGeometry x="-0.5755" y="3" relative="1" as="geometry">
            <mxPoint x="53" y="-16" as="offset" />
          </mxGeometry>
        </mxCell>
        <mxCell id="_1kvY9yX2X5lTFdotekv-92" value="&lt;pre style=&quot;font-family: &amp;#34;consolas&amp;#34; , monospace ; font-size: 11.3pt&quot;&gt;&lt;pre style=&quot;font-family: &amp;#34;consolas&amp;#34; , monospace ; font-size: 11.3pt&quot;&gt;ApprovalApiUtl&lt;/pre&gt;&lt;/pre&gt;" style="shape=umlLifeline;perimeter=lifelinePerimeter;whiteSpace=wrap;html=1;container=1;collapsible=0;recursiveResize=0;outlineConnect=0;fontSize=18;fontColor=#FFFFFF;fillColor=#666666;" vertex="1" parent="1">
          <mxGeometry x="590" y="440" width="160" height="1100" as="geometry" />
        </mxCell>
        <mxCell id="_1kvY9yX2X5lTFdotekv-124" value="" style="html=1;points=[];perimeter=orthogonalPerimeter;labelBackgroundColor=none;fontSize=16;fontColor=#FFFFFF;fillColor=#FFFFFF;" vertex="1" parent="_1kvY9yX2X5lTFdotekv-92">
          <mxGeometry x="75" y="80" width="10" height="570" as="geometry" />
        </mxCell>
        <mxCell id="_1kvY9yX2X5lTFdotekv-181" value="根据返回的信息获取firstNode为true的节点" style="edgeStyle=orthogonalEdgeStyle;html=1;align=left;spacingLeft=2;endArrow=block;rounded=0;entryX=1.233;entryY=0.924;labelBackgroundColor=none;fontSize=9;fontColor=#000000;entryDx=0;entryDy=0;entryPerimeter=0;" edge="1" target="_1kvY9yX2X5lTFdotekv-124" parent="_1kvY9yX2X5lTFdotekv-92">
          <mxGeometry relative="1" as="geometry">
            <mxPoint x="85" y="580" as="sourcePoint" />
            <Array as="points">
              <mxPoint x="115" y="580" />
              <mxPoint x="115" y="607" />
            </Array>
            <mxPoint x="90" y="600" as="targetPoint" />
          </mxGeometry>
        </mxCell>
        <mxCell id="_1kvY9yX2X5lTFdotekv-114" value="&lt;pre style=&quot;font-family: &amp;#34;consolas&amp;#34; , monospace ; font-size: 11.3pt&quot;&gt;&lt;pre style=&quot;font-family: &amp;#34;consolas&amp;#34; , monospace ; font-size: 11.3pt&quot;&gt;&lt;pre style=&quot;font-family: &amp;#34;consolas&amp;#34; , monospace ; font-size: 11.3pt&quot;&gt;V6WorkFlowInstance&lt;/pre&gt;&lt;/pre&gt;&lt;/pre&gt;" style="shape=umlLifeline;perimeter=lifelinePerimeter;whiteSpace=wrap;html=1;container=1;collapsible=0;recursiveResize=0;outlineConnect=0;fontSize=18;fontColor=#FFFFFF;fillColor=#666666;" vertex="1" parent="1">
          <mxGeometry x="800" y="440" width="160" height="1100" as="geometry" />
        </mxCell>
        <mxCell id="_1kvY9yX2X5lTFdotekv-131" value="" style="html=1;points=[];perimeter=orthogonalPerimeter;labelBackgroundColor=none;fontSize=10;fontColor=#FFFFFF;fillColor=#FFFFFF;" vertex="1" parent="_1kvY9yX2X5lTFdotekv-114">
          <mxGeometry x="75" y="135" width="10" height="455" as="geometry" />
        </mxCell>
        <mxCell id="_1kvY9yX2X5lTFdotekv-139" value="获取token" style="edgeStyle=orthogonalEdgeStyle;html=1;align=left;spacingLeft=2;endArrow=block;rounded=0;entryX=1;entryY=0;labelBackgroundColor=none;fontSize=10;fontColor=#000000;exitX=1;exitY=0.048;exitDx=0;exitDy=0;exitPerimeter=0;" edge="1" parent="_1kvY9yX2X5lTFdotekv-114" source="_1kvY9yX2X5lTFdotekv-131">
          <mxGeometry relative="1" as="geometry">
            <mxPoint x="90" y="140" as="sourcePoint" />
            <Array as="points">
              <mxPoint x="110" y="140" />
              <mxPoint x="110" y="168" />
            </Array>
            <mxPoint x="85" y="167.5" as="targetPoint" />
          </mxGeometry>
        </mxCell>
        <mxCell id="_1kvY9yX2X5lTFdotekv-140" value="设置请求参数" style="html=1;verticalAlign=bottom;endArrow=block;rounded=0;labelBackgroundColor=none;fontSize=10;fontColor=#000000;" edge="1" parent="_1kvY9yX2X5lTFdotekv-114" target="_1kvY9yX2X5lTFdotekv-137">
          <mxGeometry width="80" relative="1" as="geometry">
            <mxPoint x="85" y="190" as="sourcePoint" />
            <mxPoint x="165" y="190" as="targetPoint" />
          </mxGeometry>
        </mxCell>
        <mxCell id="_1kvY9yX2X5lTFdotekv-116" value="&lt;pre style=&quot;font-family: &amp;#34;consolas&amp;#34; , monospace ; font-size: 11.3pt&quot;&gt;&lt;pre style=&quot;font-family: &amp;#34;consolas&amp;#34; , monospace ; font-size: 11.3pt&quot;&gt;&lt;pre style=&quot;font-family: &amp;#34;consolas&amp;#34; , monospace ; font-size: 11.3pt&quot;&gt;&lt;pre style=&quot;font-family: &amp;#34;consolas&amp;#34; , monospace ; font-size: 11.3pt&quot;&gt;QueryResultInfoUtil&lt;/pre&gt;&lt;/pre&gt;&lt;/pre&gt;&lt;/pre&gt;" style="shape=umlLifeline;perimeter=lifelinePerimeter;whiteSpace=wrap;html=1;container=1;collapsible=0;recursiveResize=0;outlineConnect=0;fontSize=18;fontColor=#FFFFFF;fillColor=#666666;" vertex="1" parent="1">
          <mxGeometry x="1000" y="440" width="160" height="1160" as="geometry" />
        </mxCell>
        <mxCell id="_1kvY9yX2X5lTFdotekv-137" value="" style="html=1;points=[];perimeter=orthogonalPerimeter;labelBackgroundColor=none;fontSize=10;fontColor=#000000;fillColor=#FFFFFF;" vertex="1" parent="_1kvY9yX2X5lTFdotekv-116">
          <mxGeometry x="75" y="175" width="10" height="375" as="geometry" />
        </mxCell>
        <mxCell id="_1kvY9yX2X5lTFdotekv-146" value="查看审批流程图中可编辑的节点" style="html=1;verticalAlign=bottom;endArrow=block;rounded=0;labelBackgroundColor=none;fontSize=8;fontColor=#000000;" edge="1" parent="_1kvY9yX2X5lTFdotekv-116" target="_1kvY9yX2X5lTFdotekv-141">
          <mxGeometry x="-0.0143" width="80" relative="1" as="geometry">
            <mxPoint x="85" y="199.5" as="sourcePoint" />
            <mxPoint x="165" y="199.5" as="targetPoint" />
            <mxPoint as="offset" />
          </mxGeometry>
        </mxCell>
        <mxCell id="_1kvY9yX2X5lTFdotekv-101" value="用户操作" style="html=1;verticalAlign=bottom;startArrow=oval;startFill=1;endArrow=block;startSize=8;rounded=0;fontSize=13;fontColor=#000000;" edge="1" parent="1">
          <mxGeometry width="60" relative="1" as="geometry">
            <mxPoint x="105" y="510" as="sourcePoint" />
            <mxPoint x="235" y="510" as="targetPoint" />
          </mxGeometry>
        </mxCell>
        <mxCell id="_1kvY9yX2X5lTFdotekv-133" value="f&lt;font color=&quot;#000000&quot;&gt;查询流程图中可指定的审批节点&lt;/font&gt;" style="html=1;verticalAlign=bottom;endArrow=block;rounded=0;labelBackgroundColor=none;fontSize=10;fontColor=#FFFFFF;" edge="1" parent="1">
          <mxGeometry width="80" relative="1" as="geometry">
            <mxPoint x="680" y="650" as="sourcePoint" />
            <mxPoint x="870" y="650" as="targetPoint" />
          </mxGeometry>
        </mxCell>
        <mxCell id="_1kvY9yX2X5lTFdotekv-141" value="&lt;pre style=&quot;color: rgb(8 , 8 , 8) ; font-family: &amp;#34;consolas&amp;#34; , monospace ; font-size: 11.3pt&quot;&gt;&lt;span style=&quot;color: #000000&quot;&gt;WfDiagramController&lt;/span&gt;&lt;/pre&gt;" style="shape=umlLifeline;perimeter=lifelinePerimeter;whiteSpace=wrap;html=1;container=1;collapsible=0;recursiveResize=0;outlineConnect=0;labelBackgroundColor=none;fontSize=8;fontColor=#000000;fillColor=#666666;" vertex="1" parent="1">
          <mxGeometry x="1310" y="440" width="180" height="820" as="geometry" />
        </mxCell>
        <mxCell id="_1kvY9yX2X5lTFdotekv-145" value="" style="html=1;points=[];perimeter=orthogonalPerimeter;labelBackgroundColor=none;fontSize=8;fontColor=#000000;fillColor=#FFFFFF;" vertex="1" parent="_1kvY9yX2X5lTFdotekv-141">
          <mxGeometry x="85" y="200" width="10" height="330" as="geometry" />
        </mxCell>
        <mxCell id="_1kvY9yX2X5lTFdotekv-173" value="请求获取可编辑节点以及包含的审批人" style="html=1;verticalAlign=bottom;endArrow=block;rounded=0;labelBackgroundColor=none;fontSize=8;fontColor=#000000;" edge="1" parent="_1kvY9yX2X5lTFdotekv-141">
          <mxGeometry width="80" relative="1" as="geometry">
            <mxPoint x="100" y="220" as="sourcePoint" />
            <mxPoint x="310" y="220" as="targetPoint" />
          </mxGeometry>
        </mxCell>
        <mxCell id="_1kvY9yX2X5lTFdotekv-153" value="&lt;pre style=&quot;color: rgb(8 , 8 , 8) ; font-family: &amp;#34;consolas&amp;#34; , monospace ; font-size: 11.3pt&quot;&gt;&lt;span style=&quot;color: #000000&quot;&gt;WfDiagramServiceImpl&lt;/span&gt;&lt;/pre&gt;" style="shape=umlLifeline;perimeter=lifelinePerimeter;whiteSpace=wrap;html=1;container=1;collapsible=0;recursiveResize=0;outlineConnect=0;labelBackgroundColor=none;fontSize=8;fontColor=#000000;fillColor=#666666;" vertex="1" parent="1">
          <mxGeometry x="1540" y="440" width="180" height="560" as="geometry" />
        </mxCell>
        <mxCell id="_1kvY9yX2X5lTFdotekv-155" value="" style="html=1;points=[];perimeter=orthogonalPerimeter;labelBackgroundColor=none;fontSize=8;fontColor=#000000;fillColor=#FFFFFF;" vertex="1" parent="_1kvY9yX2X5lTFdotekv-153">
          <mxGeometry x="85" y="210" width="10" height="300" as="geometry" />
        </mxCell>
        <mxCell id="_1kvY9yX2X5lTFdotekv-148" value="根据diagramId查询base_wf_diagram表xml数据" style="edgeStyle=orthogonalEdgeStyle;html=1;align=left;spacingLeft=2;endArrow=block;rounded=0;labelBackgroundColor=none;fontSize=8;fontColor=#000000;" edge="1" parent="_1kvY9yX2X5lTFdotekv-153">
          <mxGeometry relative="1" as="geometry">
            <mxPoint x="95" y="240" as="sourcePoint" />
            <Array as="points">
              <mxPoint x="125" y="240" />
              <mxPoint x="125" y="262" />
            </Array>
            <mxPoint x="95" y="262" as="targetPoint" />
          </mxGeometry>
        </mxCell>
        <mxCell id="_1kvY9yX2X5lTFdotekv-152" value="解析xml数据,转换为diagramModel数据" style="edgeStyle=orthogonalEdgeStyle;html=1;align=left;spacingLeft=2;endArrow=block;rounded=0;labelBackgroundColor=none;fontSize=8;fontColor=#000000;" edge="1" parent="_1kvY9yX2X5lTFdotekv-153">
          <mxGeometry relative="1" as="geometry">
            <mxPoint x="95" y="280" as="sourcePoint" />
            <Array as="points">
              <mxPoint x="125" y="280" />
              <mxPoint x="125" y="300" />
            </Array>
            <mxPoint x="95" y="300" as="targetPoint" />
            <mxPoint as="offset" />
          </mxGeometry>
        </mxCell>
        <mxCell id="_1kvY9yX2X5lTFdotekv-157" value="循环所有的节点元素，只处理enableAssignApprover=true的元素" style="edgeStyle=orthogonalEdgeStyle;html=1;align=left;spacingLeft=2;endArrow=block;rounded=0;labelBackgroundColor=none;fontSize=8;fontColor=#000000;" edge="1" parent="_1kvY9yX2X5lTFdotekv-153">
          <mxGeometry relative="1" as="geometry">
            <mxPoint x="95" y="360" as="sourcePoint" />
            <Array as="points">
              <mxPoint x="120" y="360" />
              <mxPoint x="120" y="380" />
            </Array>
            <mxPoint x="95" y="380" as="targetPoint" />
          </mxGeometry>
        </mxCell>
        <mxCell id="_1kvY9yX2X5lTFdotekv-158" value="获取开始事件,获取开始事件的目标节点元素" style="edgeStyle=orthogonalEdgeStyle;html=1;align=left;spacingLeft=2;endArrow=block;rounded=0;labelBackgroundColor=none;fontSize=8;fontColor=#000000;" edge="1" parent="_1kvY9yX2X5lTFdotekv-153">
          <mxGeometry relative="1" as="geometry">
            <mxPoint x="95" y="320" as="sourcePoint" />
            <Array as="points">
              <mxPoint x="125" y="320" />
            </Array>
            <mxPoint x="95" y="340" as="targetPoint" />
          </mxGeometry>
        </mxCell>
        <mxCell id="_1kvY9yX2X5lTFdotekv-164" value="根据开始事情获取的目标节点元素，判断是否是开始节点" style="edgeStyle=orthogonalEdgeStyle;html=1;align=left;spacingLeft=2;endArrow=block;rounded=0;labelBackgroundColor=none;fontSize=8;fontColor=#000000;" edge="1" parent="_1kvY9yX2X5lTFdotekv-153">
          <mxGeometry relative="1" as="geometry">
            <mxPoint x="95" y="460" as="sourcePoint" />
            <Array as="points">
              <mxPoint x="125" y="460" />
            </Array>
            <mxPoint x="95" y="480" as="targetPoint" />
          </mxGeometry>
        </mxCell>
        <mxCell id="_1kvY9yX2X5lTFdotekv-159" value="V4" style="shape=umlLifeline;perimeter=lifelinePerimeter;whiteSpace=wrap;html=1;container=1;collapsible=0;recursiveResize=0;outlineConnect=0;labelBackgroundColor=none;fontSize=8;fontColor=#000000;fillColor=#666666;" vertex="1" parent="1">
          <mxGeometry x="2010" y="450" width="100" height="560" as="geometry" />
        </mxCell>
        <mxCell id="_1kvY9yX2X5lTFdotekv-163" value="" style="html=1;points=[];perimeter=orthogonalPerimeter;labelBackgroundColor=none;fontSize=8;fontColor=#000000;fillColor=#FFFFFF;" vertex="1" parent="_1kvY9yX2X5lTFdotekv-159">
          <mxGeometry x="45" y="390" width="10" height="50" as="geometry" />
        </mxCell>
        <mxCell id="_1kvY9yX2X5lTFdotekv-161" value="根据条件返回获取用户信息" style="html=1;verticalAlign=bottom;endArrow=block;rounded=0;labelBackgroundColor=none;fontSize=8;fontColor=#000000;entryX=1.033;entryY=0.758;entryDx=0;entryDy=0;entryPerimeter=0;exitX=0.033;exitY=0.773;exitDx=0;exitDy=0;exitPerimeter=0;" edge="1" parent="1" source="_1kvY9yX2X5lTFdotekv-163" target="_1kvY9yX2X5lTFdotekv-155">
          <mxGeometry width="80" relative="1" as="geometry">
            <mxPoint x="2050" y="880" as="sourcePoint" />
            <mxPoint x="1640" y="880" as="targetPoint" />
          </mxGeometry>
        </mxCell>
        <mxCell id="_1kvY9yX2X5lTFdotekv-162" value="根据节点元素配置的审批人条件查询用户信息" style="html=1;verticalAlign=bottom;endArrow=block;rounded=0;labelBackgroundColor=none;fontSize=8;fontColor=#000000;entryX=0.033;entryY=0.16;entryDx=0;entryDy=0;entryPerimeter=0;exitX=0.967;exitY=0.662;exitDx=0;exitDy=0;exitPerimeter=0;" edge="1" parent="1" source="_1kvY9yX2X5lTFdotekv-155" target="_1kvY9yX2X5lTFdotekv-163">
          <mxGeometry width="80" relative="1" as="geometry">
            <mxPoint x="1640" y="848" as="sourcePoint" />
            <mxPoint x="2050" y="850" as="targetPoint" />
          </mxGeometry>
        </mxCell>
        <mxCell id="_1kvY9yX2X5lTFdotekv-174" value="返回获取的可编辑节点和包含的审批人" style="html=1;verticalAlign=bottom;endArrow=block;rounded=0;labelBackgroundColor=none;fontSize=8;fontColor=#000000;entryX=1.233;entryY=0.891;entryDx=0;entryDy=0;entryPerimeter=0;" edge="1" parent="1" target="_1kvY9yX2X5lTFdotekv-145">
          <mxGeometry width="80" relative="1" as="geometry">
            <mxPoint x="1620" y="934" as="sourcePoint" />
            <mxPoint x="1540" y="930" as="targetPoint" />
          </mxGeometry>
        </mxCell>
        <mxCell id="_1kvY9yX2X5lTFdotekv-175" value="返回JSON格式的数据" style="html=1;verticalAlign=bottom;endArrow=block;rounded=0;labelBackgroundColor=none;fontSize=8;fontColor=#000000;exitX=0.167;exitY=0.949;exitDx=0;exitDy=0;exitPerimeter=0;" edge="1" parent="1" source="_1kvY9yX2X5lTFdotekv-145" target="_1kvY9yX2X5lTFdotekv-137">
          <mxGeometry width="80" relative="1" as="geometry">
            <mxPoint x="1270" y="940" as="sourcePoint" />
            <mxPoint x="1350" y="940" as="targetPoint" />
          </mxGeometry>
        </mxCell>
        <mxCell id="_1kvY9yX2X5lTFdotekv-176" value="返回JSON数组" style="html=1;verticalAlign=bottom;endArrow=block;rounded=0;labelBackgroundColor=none;fontSize=8;fontColor=#000000;exitX=0.033;exitY=0.977;exitDx=0;exitDy=0;exitPerimeter=0;" edge="1" parent="1" source="_1kvY9yX2X5lTFdotekv-137" target="_1kvY9yX2X5lTFdotekv-131">
          <mxGeometry width="80" relative="1" as="geometry">
            <mxPoint x="1070" y="980" as="sourcePoint" />
            <mxPoint x="1040" y="980" as="targetPoint" />
          </mxGeometry>
        </mxCell>
        <mxCell id="_1kvY9yX2X5lTFdotekv-179" value="&lt;font style=&quot;font-size: 9px&quot;&gt;&lt;span style=&quot;font-size: 9px&quot;&gt;返回&lt;/span&gt;&lt;br style=&quot;font-size: 9px&quot;&gt;&lt;font face=&quot;consolas, monospace&quot; style=&quot;font-size: 9px&quot;&gt;List&amp;lt;&lt;/font&gt;&lt;span style=&quot;font-family: &amp;#34;consolas&amp;#34; , monospace ; font-size: 8px&quot;&gt;CanAduitTacheInfoNoSubmitModel&lt;/span&gt;&lt;font face=&quot;consolas, monospace&quot; style=&quot;font-size: 9px&quot;&gt;&lt;br&gt;&amp;gt;&lt;/font&gt;&lt;br&gt;&lt;/font&gt;" style="html=1;verticalAlign=bottom;endArrow=block;rounded=0;labelBackgroundColor=none;fontSize=8;fontColor=#000000;" edge="1" parent="1">
          <mxGeometry width="80" relative="1" as="geometry">
            <mxPoint x="870" y="1000" as="sourcePoint" />
            <mxPoint x="680" y="1000" as="targetPoint" />
          </mxGeometry>
        </mxCell>
        <mxCell id="_1kvY9yX2X5lTFdotekv-182" value="返回节点信息以及对应的人员" style="html=1;verticalAlign=bottom;endArrow=block;rounded=0;labelBackgroundColor=none;fontSize=9;fontColor=#000000;entryX=0.967;entryY=0.895;entryDx=0;entryDy=0;entryPerimeter=0;" edge="1" parent="1" source="_1kvY9yX2X5lTFdotekv-124" target="_1kvY9yX2X5lTFdotekv-102">
          <mxGeometry width="80" relative="1" as="geometry">
            <mxPoint x="560" y="1070" as="sourcePoint" />
            <mxPoint x="640" y="1070" as="targetPoint" />
          </mxGeometry>
        </mxCell>
        <mxCell id="_1kvY9yX2X5lTFdotekv-183" value="返回节点以及审批人信息" style="html=1;verticalAlign=bottom;endArrow=block;rounded=0;labelBackgroundColor=none;fontSize=9;fontColor=#000000;exitX=0.1;exitY=0.96;exitDx=0;exitDy=0;exitPerimeter=0;" edge="1" parent="1" source="_1kvY9yX2X5lTFdotekv-102">
          <mxGeometry width="80" relative="1" as="geometry">
            <mxPoint x="310" y="1100" as="sourcePoint" />
            <mxPoint x="250" y="1096" as="targetPoint" />
          </mxGeometry>
        </mxCell>
      </root>
    </mxGraphModel>
  </diagram>
</mxfile>
